PathFileType	4	(X/Y/Z)	 2.5Hzlow3min.trc
DataRate	CameraRate	NumFrames	NumMarkers	Units	OrigDataRate	OrigDataStartFrame	OrigNumFrames
200	200	9	35	m	200	626	1000
Frame#	Time	C7			LSH			RSH			MAN			RASI			LASI			HIPR			HIPL			RPSI			LPSI			COX			RTHI1			RTHI2			RTHI3			RTHI4			RSHA1			RSHA2			RSHA3			RSHA4			RHEEL			RMET5			RMET1			RTOE			LTHI1			LTHI2			LTHI3			LTHI4			LSHA1			LSHA2			LSHA3			LSHA4			LHEEL			LMET5			LMET1			LTOE			
		X1	Y1	Z1	X2	Y2	Z2	X3	Y3	Z3	X4	Y4	Z4	X5	Y5	Z5	X6	Y6	Z6	X7	Y7	Z7	X8	Y8	Z8	X9	Y9	Z9	X10	Y10	Z10	X11	Y11	Z11	X12	Y12	Z12	X13	Y13	Z13	X14	Y14	Z14	X15	Y15	Z15	X16	Y16	Z16	X17	Y17	Z17	X18	Y18	Z18	X19	Y19	Z19	X20	Y20	Z20	X21	Y21	Z21	X22	Y22	Z22	X23	Y23	Z23	X24	Y24	Z24	X25	Y25	Z25	X26	Y26	Z26	X27	Y27	Z27	X28	Y28	Z28	X29	Y29	Z29	X30	Y30	Z30	X31	Y31	Z31	X32	Y32	Z32	X33	Y33	Z33	X34	Y34	Z34	X35	Y35	Z35	
626	3.1300	-0.313492	1.309473	-0.528722	-0.275476	1.275072	-0.706700	-0.276110	1.286227	-0.353392	-0.202704	1.259413	-0.529558	-0.188009	0.876315	-0.438273	-0.181432	0.885115	-0.622133	-0.258799	0.914950	-0.394846	-0.249912	0.925128	-0.664503	-0.335118	0.904812	-0.470751	-0.332107	0.910325	-0.582824	-0.336646	0.921143	-0.529528	-0.273474	0.698920	-0.367023	-0.249596	0.644327	-0.361787	-0.188981	0.665671	-0.368234	-0.204947	0.724828	-0.373209	-0.274675	0.285895	-0.357533	-0.303473	0.252645	-0.360558	-0.254915	0.220443	-0.379729	-0.232253	0.254452	-0.379612	-0.441469	0.066677	-0.429376	-0.296133	0.027977	-0.351913	-0.255959	0.033257	-0.427217	-0.230324	0.024382	-0.417211	-0.242796	0.671856	-0.706909	-0.219465	0.614735	-0.705978	-0.158915	0.633267	-0.690806	-0.174600	0.690938	-0.690802	-0.293339	0.269059	-0.699901	-0.315898	0.235781	-0.696017	-0.259941	0.206301	-0.693712	-0.244090	0.248044	-0.699191	-0.410311	0.065620	-0.640295	-0.262486	0.025142	-0.717731	-0.223087	0.032882	-0.643266	-0.199114	0.023903	-0.652902	
627	3.1350	-0.313456	1.307897	-0.528889	-0.275209	1.273063	-0.706982	-0.276334	1.284136	-0.353362	-0.202587	1.257300	-0.529598	-0.187980	0.874776	-0.438559	-0.181637	0.883894	-0.622453	-0.259093	0.913145	-0.394830	-0.250483	0.923761	-0.664841	-0.335270	0.903202	-0.470764	-0.332402	0.908871	-0.582730	-0.336959	0.919604	-0.529507	-0.273321	0.697314	-0.367474	-0.249284	0.642809	-0.362048	-0.188701	0.664325	-0.368280	-0.204854	0.723436	-0.373396	-0.274025	0.285052	-0.357686	-0.302690	0.251666	-0.361070	-0.254322	0.219380	-0.379825	-0.231495	0.253280	-0.379684	-0.441456	0.066276	-0.429910	-0.296198	0.028004	-0.352027	-0.255880	0.033223	-0.427297	-0.230220	0.024375	-0.417202	-0.242393	0.670519	-0.707152	-0.218726	0.613527	-0.706193	-0.158314	0.632425	-0.690941	-0.174344	0.690001	-0.690950	-0.292374	0.268399	-0.699551	-0.315073	0.235219	-0.695592	-0.259240	0.205500	-0.693423	-0.243243	0.247143	-0.698968	-0.410140	0.065475	-0.639664	-0.262483	0.025184	-0.717560	-0.222900	0.032825	-0.643169	-0.198924	0.023872	-0.652898	
628	3.1400	-0.313470	1.306795	-0.529026	-0.274975	1.271569	-0.707229	-0.276567	1.282529	-0.353343	-0.202466	1.255750	-0.529627	-0.187825	0.873774	-0.438904	-0.181730	0.883237	-0.622719	-0.259071	0.912001	-0.394837	-0.250887	0.923100	-0.665034	-0.335262	0.902081	-0.470732	-0.332565	0.907862	-0.582575	-0.337164	0.918493	-0.529430	-0.273072	0.696164	-0.367848	-0.248909	0.641712	-0.362287	-0.188356	0.663365	-0.368378	-0.204653	0.722444	-0.373589	-0.273571	0.284323	-0.357788	-0.302085	0.251024	-0.361434	-0.253840	0.218651	-0.379891	-0.230889	0.252444	-0.379731	-0.441408	0.066079	-0.430222	-0.296219	0.028034	-0.352112	-0.255813	0.033189	-0.427360	-0.230142	0.024364	-0.417193	-0.241883	0.669603	-0.707430	-0.217917	0.612727	-0.706429	-0.157647	0.631953	-0.691038	-0.173986	0.689440	-0.691068	-0.291500	0.268073	-0.699278	-0.314320	0.234983	-0.695253	-0.258587	0.205051	-0.693192	-0.242485	0.246599	-0.698808	-0.409916	0.065594	-0.639173	-0.262453	0.025212	-0.717401	-0.222708	0.032771	-0.643087	-0.198739	0.023840	-0.652892	
629	3.1450	-0.313545	1.306164	-0.529133	-0.274797	1.270602	-0.707440	-0.276820	1.281432	-0.353318	-0.202437	1.254706	-0.529650	-0.187552	0.873303	-0.439271	-0.181708	0.883107	-0.622932	-0.258768	0.911489	-0.394878	-0.251127	0.923060	-0.665091	-0.335112	0.901421	-0.470674	-0.332592	0.907260	-0.582398	-0.337238	0.917827	-0.529323	-0.272724	0.695473	-0.368124	-0.248476	0.641058	-0.362497	-0.187942	0.662804	-0.368524	-0.204344	0.721869	-0.373780	-0.273192	0.283771	-0.357919	-0.301637	0.250705	-0.361663	-0.253460	0.218265	-0.379944	-0.230425	0.251952	-0.379780	-0.441330	0.066060	-0.430330	-0.296208	0.028056	-0.352170	-0.255754	0.033155	-0.427411	-0.230087	0.024349	-0.417192	-0.241275	0.669125	-0.707734	-0.217062	0.612360	-0.706679	-0.156930	0.631843	-0.691109	-0.173520	0.689254	-0.691167	-0.290745	0.268070	-0.699116	-0.313658	0.235057	-0.695047	-0.258003	0.204942	-0.693034	-0.241830	0.246397	-0.698717	-0.409660	0.065942	-0.638854	-0.262400	0.025227	-0.717264	-0.222528	0.032725	-0.643024	-0.198572	0.023807	-0.652885	
630	3.1500	-0.313691	1.306008	-0.529210	-0.274691	1.270172	-0.707619	-0.277105	1.280849	-0.353285	-0.202523	1.254177	-0.529663	-0.187173	0.873354	-0.439621	-0.181574	0.883463	-0.623105	-0.258246	0.911547	-0.394959	-0.251215	0.923538	-0.665042	-0.334844	0.901204	-0.470609	-0.332494	0.907063	-0.582262	-0.337178	0.917582	-0.529220	-0.272276	0.695275	-0.368312	-0.247990	0.640876	-0.362680	-0.187468	0.662667	-0.368726	-0.203920	0.721733	-0.373976	-0.272897	0.283446	-0.358065	-0.301324	0.250681	-0.361794	-0.253178	0.218195	-0.380016	-0.230098	0.251800	-0.379849	-0.441229	0.066208	-0.430262	-0.296174	0.028070	-0.352208	-0.255701	0.033122	-0.427449	-0.230047	0.024337	-0.417195	-0.240579	0.669108	-0.708050	-0.216184	0.612425	-0.706936	-0.156172	0.632090	-0.691147	-0.172946	0.689446	-0.691238	-0.290111	0.268348	-0.699076	-0.313102	0.235389	-0.694971	-0.257515	0.205135	-0.692967	-0.241290	0.246521	-0.698702	-0.409385	0.066502	-0.638724	-0.262326	0.025228	-0.717158	-0.222373	0.032687	-0.642987	-0.198433	0.023778	-0.652876	
631	3.1550	-0.313910	1.306326	-0.529261	-0.274668	1.270272	-0.707771	-0.277431	1.280782	-0.353241	-0.202724	1.254200	-0.529674	-0.186700	0.873905	-0.439929	-0.181328	0.884273	-0.623247	-0.257585	0.912107	-0.395078	-0.251181	0.924433	-0.664911	-0.334466	0.901414	-0.470557	-0.332270	0.907265	-0.582181	-0.336980	0.917756	-0.529136	-0.271735	0.695592	-0.368417	-0.247467	0.641183	-0.362840	-0.186942	0.662960	-0.368983	-0.203383	0.722038	-0.374184	-0.272687	0.283421	-0.358202	-0.301131	0.250930	-0.361861	-0.252999	0.218425	-0.380114	-0.229910	0.251986	-0.379946	-0.441126	0.066530	-0.430106	-0.296116	0.028074	-0.352230	-0.255655	0.033091	-0.427471	-0.230021	0.024327	-0.417201	-0.239803	0.669560	-0.708368	-0.215298	0.612933	-0.707197	-0.155391	0.632695	-0.691144	-0.172281	0.690019	-0.691265	-0.289622	0.268870	-0.699159	-0.312667	0.235948	-0.695024	-0.257127	0.205619	-0.692985	-0.240882	0.246952	-0.698768	-0.409101	0.067231	-0.638783	-0.262233	0.025218	-0.717086	-0.222249	0.032658	-0.642979	-0.198325	0.023752	-0.652869	
632	3.1600	-0.314200	1.307093	-0.529292	-0.274734	1.270889	-0.707897	-0.277809	1.281225	-0.353179	-0.202998	1.254797	-0.529687	-0.186143	0.874941	-0.440187	-0.180971	0.885508	-0.623363	-0.256855	0.913113	-0.395223	-0.251029	0.925680	-0.664751	-0.333992	0.902048	-0.470536	-0.331926	0.907879	-0.582152	-0.336649	0.918345	-0.529093	-0.271120	0.696429	-0.368446	-0.246925	0.641980	-0.362976	-0.186379	0.663677	-0.369286	-0.202745	0.722782	-0.374400	-0.272604	0.283732	-0.358281	-0.301059	0.251438	-0.361887	-0.252931	0.218963	-0.380240	-0.229869	0.252519	-0.380074	-0.441020	0.067016	-0.429876	-0.296038	0.028073	-0.352238	-0.255623	0.033053	-0.427478	-0.230009	0.024316	-0.417212	-0.238970	0.670475	-0.708684	-0.214428	0.613876	-0.707456	-0.154610	0.633649	-0.691100	-0.171537	0.690969	-0.691250	-0.289320	0.269636	-0.699375	-0.312388	0.236735	-0.695227	-0.256854	0.206370	-0.693097	-0.240618	0.247678	-0.698921	-0.408816	0.068130	-0.639015	-0.262120	0.025199	-0.717054	-0.222155	0.032638	-0.643000	-0.198248	0.023728	-0.652865	
633	3.1650	-0.314558	1.308301	-0.529309	-0.274885	1.272009	-0.708003	-0.278245	1.282168	-0.353099	-0.203338	1.255944	-0.529700	-0.185511	0.876435	-0.440390	-0.180507	0.887147	-0.623461	-0.256103	0.914522	-0.395379	-0.250768	0.927226	-0.664604	-0.333433	0.903101	-0.470547	-0.331463	0.908890	-0.582180	-0.336199	0.919373	-0.529101	-0.270433	0.697779	-0.368414	-0.246375	0.643273	-0.363091	-0.185791	0.664805	-0.369634	-0.202016	0.723951	-0.374631	-0.272651	0.284405	-0.358316	-0.301119	0.252201	-0.361880	-0.252985	0.219807	-0.380372	-0.229983	0.253396	-0.380223	-0.440905	0.067667	-0.429589	-0.295947	0.028066	-0.352234	-0.255599	0.033021	-0.427472	-0.230011	0.024308	-0.417224	-0.238102	0.671840	-0.708999	-0.213594	0.615238	-0.707717	-0.153851	0.634941	-0.691029	-0.170739	0.692281	-0.691202	-0.289214	0.270616	-0.699712	-0.312268	0.237715	-0.695563	-0.256712	0.207382	-0.693316	-0.240508	0.248686	-0.699162	-0.408523	0.069183	-0.639412	-0.261989	0.025177	-0.717062	-0.222091	0.032630	-0.643052	-0.198202	0.023709	-0.652868	
634	3.1700	-0.314959	1.309924	-0.529329	-0.275119	1.273610	-0.708087	-0.278734	1.283577	-0.353040	-0.203681	1.257669	-0.529704	-0.184814	0.878367	-0.440548	-0.179940	0.889170	-0.623544	-0.255354	0.916309	-0.395535	-0.250394	0.929045	-0.664502	-0.332790	0.904578	-0.470596	-0.330883	0.910323	-0.582254	-0.335644	0.920808	-0.529161	-0.269697	0.699627	-0.368335	-0.245822	0.645029	-0.363180	-0.185187	0.666331	-0.370022	-0.201207	0.725534	-0.374882	-0.272912	0.285503	-0.358309	-0.301333	0.253225	-0.361831	-0.253172	0.220941	-0.380506	-0.230265	0.254615	-0.380375	-0.440773	0.068488	-0.429253	-0.295833	0.028067	-0.352222	-0.255587	0.032994	-0.427455	-0.230026	0.024302	-0.417235	-0.237219	0.673643	-0.709312	-0.212828	0.616994	-0.707984	-0.153139	0.636549	-0.690933	-0.169912	0.693928	-0.691119	-0.289302	0.271799	-0.700150	-0.312314	0.238875	-0.696006	-0.256706	0.208636	-0.693639	-0.240556	0.249971	-0.699492	-0.408213	0.070391	-0.639945	-0.261843	0.025159	-0.717109	-0.222051	0.032627	-0.643131	-0.198183	0.023691	-0.652876	
